<!-- Generated by IcoMoon.io -->
<svg version="1.1" xmlns="http://www.w3.org/2000/svg" width="83" height="32" viewBox="0 0 83 32">
<path d="M15.567 7.565c0.299-0.034 0.645 0.032 0.933 0.12 0.651 0.198 1.18 0.623 1.494 1.229 0.326 0.621 0.389 1.348 0.174 2.017-0.273 0.824-0.86 1.239-1.592 1.619l0.008 2.404c0.523 0.159 1.032 0.34 1.507 0.615 1.092 0.633 1.838 1.7 2.151 2.914 0.331 1.273 0.143 2.626-0.523 3.761-0.611 1.029-1.585 1.788-2.751 2.079-1.523 0.381-2.815-0.031-4.124-0.81-0.579 0.619-1.15 1.244-1.715 1.876 0.252 0.595 0.336 1.22 0.169 1.852-0.164 0.618-0.597 1.148-1.151 1.461-0.621 0.351-1.328 0.415-2.009 0.22-0.676-0.193-1.243-0.611-1.574-1.24-0.325-0.618-0.352-1.343-0.142-2.003 0.24-0.75 0.728-1.212 1.414-1.555 0.739-0.289 1.35-0.194 2.071 0.066 0.6-0.632 1.166-1.296 1.772-1.922-0.667-1.307-0.883-2.421-0.536-3.862-0.755-0.352-1.482-0.762-2.237-1.115-0.404 0.42-0.897 0.708-1.476 0.806-0.691 0.116-1.419-0.072-1.987-0.478-0.563-0.408-0.933-1.029-1.024-1.718-0.093-0.668 0.083-1.404 0.51-1.931 0.441-0.544 1.125-0.872 1.817-0.944 0.679-0.066 1.357 0.141 1.883 0.576 0.673 0.563 0.867 1.264 0.949 2.099 0.716 0.439 1.535 0.777 2.281 1.169 0.97-1.147 1.68-1.509 3.094-1.945l0.001-2.385c-0.253-0.101-0.506-0.225-0.726-0.387-0.558-0.413-0.925-1.035-1.015-1.723-0.084-0.685 0.11-1.374 0.538-1.916 0.467-0.586 1.092-0.853 1.816-0.949zM18.686 19.431c-0.144-1.641-1.586-2.858-3.228-2.724-1.656 0.135-2.886 1.592-2.741 3.247s1.61 2.877 3.265 2.721c1.64-0.155 2.848-1.604 2.704-3.244z"></path>
<path d="M74.608 15.704c0.488 0.001 0.976 0.007 1.463 0.019l-0.003 2.578c0.375-0.292 0.785-0.51 1.261-0.581 0.643-0.097 1.299 0.069 1.817 0.462 0.626 0.473 0.954 1.269 1.049 2.031 0.121 0.966-0.106 1.894-0.702 2.664-0.395 0.381-0.87 0.649-1.417 0.738-0.803 0.132-1.439-0.149-2.065-0.616l-0.003 0.563-1.4-0.003-0.001-7.856zM77.115 19.083c-0.434 0.144-0.737 0.351-0.949 0.769-0.235 0.465-0.252 1.039-0.068 1.524 0.14 0.371 0.403 0.692 0.769 0.857 0.266 0.12 0.516 0.124 0.803 0.107 0.454-0.172 0.759-0.392 0.965-0.846 0.215-0.475 0.211-1.047 0.008-1.525-0.156-0.367-0.435-0.664-0.811-0.809-0.235-0.091-0.47-0.103-0.718-0.076z"></path>
<path d="M32.698 15.689c0.858 2.645 1.957 5.219 2.794 7.871l-1.582 0.001c-0.185-0.566-0.364-1.207-0.647-1.731-0.185-0.079-0.404-0.053-0.601-0.050-0.763 0.008-1.526 0.005-2.289-0.008-0.239 0.584-0.433 1.185-0.622 1.788l-1.611-0.001c0.841-2.641 1.844-5.247 2.753-7.867 0.601 0.013 1.205-0.001 1.806-0.004zM31.796 17.645c-0.333 0.947-0.644 1.907-1.008 2.842l1.158-0.001 0.9-0.010c-0.126-0.356-0.861-2.673-1.050-2.831z"></path>
<path d="M66.049 15.706l1.513 0.009c-0.021 1.824-0.005 3.65-0.005 5.473-0.001 0.753 0.076 1.575-0.009 2.318l-0.083 0.057h-1.418l-0.003-3.368c-1.133-0.032-2.275-0.003-3.409-0.002l0.001 3.371-1.522-0.003 0.006-7.854 1.516 0.004 0.001 3.211h3.414l-0.002-3.217z"></path>
<path d="M68.473 17.883c0.502 0.014 1.005 0.009 1.507 0.012-0.006 0.803-0.133 3.020 0.061 3.683 0.076 0.262 0.23 0.501 0.477 0.629 0.373 0.191 0.751 0.081 1.121-0.049 0.164-0.183 0.305-0.355 0.386-0.592 0.265-0.774 0.124-2.76 0.119-3.681 0.479 0.013 0.958 0.003 1.436 0-0.011 0.551-0.002 1.105-0.003 1.656l0.007 4.019c-0.47 0.007-0.94 0.003-1.41-0.011l-0.043-0.051c0.007-0.119 0.009-0.216-0.012-0.335-0.441 0.191-0.833 0.48-1.334 0.49-0.581 0.012-1.211-0.169-1.628-0.587-0.316-0.316-0.509-0.742-0.608-1.173-0.213-0.928-0.088-2.985-0.078-4.012z"></path>
<path d="M48.139 17.725c0.75-0.059 1.532-0.006 2.138 0.5 0.425 0.354 0.562 0.779 0.608 1.307l-1.356-0.002c-0.078-0.145-0.156-0.313-0.278-0.426-0.195-0.18-0.478-0.274-0.743-0.26-0.205 0.011-0.468 0.093-0.596 0.267-0.078 0.106-0.12 0.214-0.091 0.346 0.154 0.695 1.922 0.609 2.485 0.977 0.358 0.235 0.633 0.655 0.712 1.074 0.080 0.429-0.023 0.872-0.281 1.223-0.432 0.596-1.098 0.81-1.79 0.916-0.641 0.039-1.385-0.133-1.899-0.524-0.481-0.366-0.654-0.816-0.72-1.395 0.457 0.001 0.914-0.004 1.37-0.013 0.027 0.086 0.056 0.169 0.1 0.249 0.199 0.367 0.596 0.449 0.964 0.557 0.243-0.056 0.572-0.118 0.745-0.315 0.104-0.119 0.141-0.325 0.097-0.476-0.169-0.581-1.862-0.649-2.45-1.011-0.348-0.215-0.604-0.527-0.696-0.929-0.084-0.365-0.052-0.775 0.154-1.095 0.371-0.579 0.882-0.816 1.526-0.97z"></path>
<path d="M57.262 17.723c0.427-0.035 0.845-0.032 1.262 0.080 0.48 0.13 0.99 0.398 1.233 0.853 0.117 0.218 0.206 0.61 0.128 0.852-0.389 0.084-0.864 0.027-1.264 0.023-0.059-0.198-0.109-0.35-0.269-0.487-0.203-0.17-0.468-0.251-0.732-0.222-0.206 0.021-0.472 0.123-0.587 0.308-0.069 0.11-0.097 0.224-0.054 0.35 0.25 0.736 1.746 0.561 2.329 0.893 0.371 0.212 0.681 0.585 0.786 1.001 0.113 0.448 0.038 0.945-0.22 1.33-0.386 0.575-0.998 0.791-1.645 0.917-0.635 0.078-1.37-0.056-1.901-0.422-0.545-0.376-0.708-0.847-0.831-1.463l1.359-0.010c0.083 0.208 0.158 0.37 0.334 0.514 0.235 0.192 0.513 0.279 0.816 0.239 0.235-0.031 0.466-0.139 0.606-0.335 0.092-0.129 0.137-0.285 0.094-0.442-0.17-0.605-1.671-0.567-2.267-0.888-0.402-0.217-0.721-0.578-0.848-1.020-0.108-0.375-0.063-0.765 0.135-1.102 0.329-0.558 0.932-0.831 1.537-0.97z"></path>
<path d="M40.53 16.324c0.451 0.015 0.906 0.006 1.357 0.008-0.005 0.509 0.002 1.019 0.022 1.528l1.339 0.001-0.003 1.167-1.275-0c0.001 0.735-0.168 2.63 0.17 3.197 0.263 0.207 0.789 0.13 1.109 0.126l-0.004 0.967c0.003 0.1 0.002 0.15-0.048 0.237-0.178 0.086-0.361 0.105-0.558 0.106-0.518 0.005-1.233-0.089-1.606-0.477-0.748-0.779-0.509-3.071-0.505-4.158l-0.864 0.002 0.003-1.17 0.861 0.006 0.005-1.54z"></path>
<path d="M52.171 16.318l1.332 0.008c-0.010 0.51 0.011 1.023 0.021 1.534l1.361-0.003-0.002 1.173-1.281-0.001c0.016 0.699-0.156 2.652 0.161 3.181 0.34 0.203 0.767 0.149 1.149 0.148-0.005 0.337 0.002 0.675 0.004 1.012l-0.016 0.128c-0.132 0.14-0.335 0.133-0.515 0.138-0.547 0.013-1.303-0.073-1.7-0.489-0.741-0.775-0.51-3.035-0.503-4.118l-0.911 0c-0.012-0.388-0.007-0.778-0.010-1.166l0.908 0.005 0.002-1.549z"></path>
<path d="M23.431 15.445c0.070-0.004 0.138-0.004 0.208 0.006 0.218 0.032 0.432 0.137 0.552 0.328 0.127 0.203 0.145 0.473 0.162 0.708 0.086 1.163 0.022 2.373 0.022 3.54-0 0.953 0.105 2.245-0.072 3.163-0.056 0.288-0.247 0.426-0.476 0.583-0.087 0.011-0.179 0.023-0.267 0.018-0.197-0.011-0.383-0.099-0.51-0.249-0.126-0.148-0.122-0.447-0.133-0.633-0.080-1.338-0.012-2.718-0.011-4.060 0.001-0.762-0.104-2.222 0.056-2.902 0.057-0.243 0.277-0.371 0.468-0.501z"></path>
<path d="M38.879 17.84l0.191-0.002c0.227 0.254 0.114 1.057 0.107 1.39-0.479-0.005-0.933-0.024-1.308 0.324-0.705 0.654-0.467 3.048-0.474 4.010-0.378-0.003-1.114 0.134-1.402-0.106l-0.015-0.238c0.007-1.781-0.038-3.561-0.027-5.342 0.457 0.014 0.916 0.005 1.374 0.002l-0.016 0.787c0.085-0.122 0.169-0.252 0.268-0.363 0.347-0.391 0.817-0.426 1.303-0.461z"></path>
<path d="M44.081 17.864l1.437 0.001 0.004 5.701-1.453-0.002 0.013-5.699z"></path>
<path d="M21.424 17.313c0.236 0.044 0.445 0.132 0.582 0.337 0.212 0.316 0.218 3.413 0.111 3.855-0.058 0.242-0.267 0.359-0.465 0.476-0.227-0.014-0.525-0.034-0.677-0.231-0.226-0.292-0.207-3.584-0.078-3.997 0.075-0.24 0.321-0.341 0.527-0.441z"></path>
<path d="M44.705 15.515c0.427-0.050 0.817 0.248 0.879 0.673s-0.224 0.823-0.647 0.899c-0.285 0.051-0.575-0.058-0.757-0.283s-0.227-0.532-0.118-0.8c0.109-0.268 0.355-0.456 0.643-0.489z"></path>
</svg>
